<svg xmlns="http://www.w3.org/2000/svg" xmlns:xlink="http://www.w3.org/1999/xlink" width="1024" zoomAndPan="magnify" viewBox="0 0 768 767.999994" height="1024" preserveAspectRatio="xMidYMid meet" version="1.0"><defs><clipPath id="a8155b5664"><path d="M 0 179.515625 L 315.144531 179.515625 L 315.144531 494.660156 L 0 494.660156 Z M 0 179.515625 " clip-rule="nonzero"/></clipPath><clipPath id="25805a774c"><path d="M 2.25 179.515625 L 312.894531 179.515625 C 313.492188 179.515625 314.0625 179.753906 314.484375 180.175781 C 314.90625 180.597656 315.144531 181.167969 315.144531 181.765625 L 315.144531 492.410156 C 315.144531 493.007812 314.90625 493.578125 314.484375 494 C 314.0625 494.421875 313.492188 494.660156 312.894531 494.660156 L 2.25 494.660156 C 1.652344 494.660156 1.082031 494.421875 0.660156 494 C 0.238281 493.578125 0 493.007812 0 492.410156 L 0 181.765625 C 0 181.167969 0.238281 180.597656 0.660156 180.175781 C 1.082031 179.753906 1.652344 179.515625 2.25 179.515625 Z M 2.25 179.515625 " clip-rule="nonzero"/></clipPath><clipPath id="69d8f81df8"><path d="M 0 0.515625 L 315.144531 0.515625 L 315.144531 315.660156 L 0 315.660156 Z M 0 0.515625 " clip-rule="nonzero"/></clipPath><clipPath id="028cdb32da"><path d="M 2.25 0.515625 L 312.894531 0.515625 C 313.492188 0.515625 314.0625 0.753906 314.484375 1.175781 C 314.90625 1.597656 315.144531 2.167969 315.144531 2.765625 L 315.144531 313.410156 C 315.144531 314.007812 314.90625 314.578125 314.484375 315 C 314.0625 315.421875 313.492188 315.660156 312.894531 315.660156 L 2.25 315.660156 C 1.652344 315.660156 1.082031 315.421875 0.660156 315 C 0.238281 314.578125 0 314.007812 0 313.410156 L 0 2.765625 C 0 2.167969 0.238281 1.597656 0.660156 1.175781 C 1.082031 0.753906 1.652344 0.515625 2.25 0.515625 Z M 2.25 0.515625 " clip-rule="nonzero"/></clipPath><clipPath id="f660f3f7d8"><rect x="0" width="316" y="0" height="316"/></clipPath><clipPath id="8a7c27fea1"><path d="M 343.769531 494.660156 L 602.109375 494.660156 L 602.109375 753 L 343.769531 753 Z M 343.769531 494.660156 " clip-rule="nonzero"/></clipPath><clipPath id="8247dc0b47"><path d="M 346.019531 494.660156 L 599.859375 494.660156 C 600.453125 494.660156 601.027344 494.898438 601.449219 495.320312 C 601.871094 495.742188 602.109375 496.3125 602.109375 496.910156 L 602.109375 750.75 C 602.109375 751.347656 601.871094 751.917969 601.449219 752.339844 C 601.027344 752.761719 600.453125 753 599.859375 753 L 346.019531 753 C 345.421875 753 344.847656 752.761719 344.425781 752.339844 C 344.003906 751.917969 343.769531 751.347656 343.769531 750.75 L 343.769531 496.910156 C 343.769531 496.3125 344.003906 495.742188 344.425781 495.320312 C 344.847656 494.898438 345.421875 494.660156 346.019531 494.660156 Z M 346.019531 494.660156 " clip-rule="nonzero"/></clipPath><clipPath id="510f640d84"><path d="M 0.769531 0.660156 L 259.109375 0.660156 L 259.109375 259 L 0.769531 259 Z M 0.769531 0.660156 " clip-rule="nonzero"/></clipPath><clipPath id="66a932eb6d"><path d="M 3.019531 0.660156 L 256.859375 0.660156 C 257.453125 0.660156 258.027344 0.898438 258.449219 1.320312 C 258.871094 1.742188 259.109375 2.3125 259.109375 2.910156 L 259.109375 256.75 C 259.109375 257.347656 258.871094 257.917969 258.449219 258.339844 C 258.027344 258.761719 257.453125 259 256.859375 259 L 3.019531 259 C 2.421875 259 1.847656 258.761719 1.425781 258.339844 C 1.003906 257.917969 0.769531 257.347656 0.769531 256.75 L 0.769531 2.910156 C 0.769531 2.3125 1.003906 1.742188 1.425781 1.320312 C 1.847656 0.898438 2.421875 0.660156 3.019531 0.660156 Z M 3.019531 0.660156 " clip-rule="nonzero"/></clipPath><clipPath id="8010e39347"><rect x="0" width="260" y="0" height="259"/></clipPath><clipPath id="7ec58c0fd9"><path d="M 404.371094 0.789062 L 768 0.789062 L 768 364.417969 L 404.371094 364.417969 Z M 404.371094 0.789062 " clip-rule="nonzero"/></clipPath><clipPath id="8502f397d0"><path d="M 406.621094 0.789062 L 765.75 0.789062 C 766.347656 0.789062 766.917969 1.027344 767.339844 1.449219 C 767.761719 1.871094 768 2.441406 768 3.039062 L 768 362.167969 C 768 362.761719 767.761719 363.335938 767.339844 363.757812 C 766.917969 364.179688 766.347656 364.417969 765.75 364.417969 L 406.621094 364.417969 C 406.027344 364.417969 405.453125 364.179688 405.03125 363.757812 C 404.609375 363.335938 404.371094 362.761719 404.371094 362.167969 L 404.371094 3.039062 C 404.371094 2.441406 404.609375 1.871094 405.03125 1.449219 C 405.453125 1.027344 406.027344 0.789062 406.621094 0.789062 Z M 406.621094 0.789062 " clip-rule="nonzero"/></clipPath><clipPath id="7a7437c6c6"><path d="M 0.371094 0.789062 L 364 0.789062 L 364 364.417969 L 0.371094 364.417969 Z M 0.371094 0.789062 " clip-rule="nonzero"/></clipPath><clipPath id="a909b6e01c"><path d="M 2.621094 0.789062 L 361.75 0.789062 C 362.347656 0.789062 362.917969 1.027344 363.339844 1.449219 C 363.761719 1.871094 364 2.441406 364 3.039062 L 364 362.167969 C 364 362.761719 363.761719 363.335938 363.339844 363.757812 C 362.917969 364.179688 362.347656 364.417969 361.75 364.417969 L 2.621094 364.417969 C 2.027344 364.417969 1.453125 364.179688 1.03125 363.757812 C 0.609375 363.335938 0.371094 362.761719 0.371094 362.167969 L 0.371094 3.039062 C 0.371094 2.441406 0.609375 1.871094 1.03125 1.449219 C 1.453125 1.027344 2.027344 0.789062 2.621094 0.789062 Z M 2.621094 0.789062 " clip-rule="nonzero"/></clipPath><clipPath id="6181b6ca38"><rect x="0" width="364" y="0" height="365"/></clipPath><clipPath id="f3346a8a43"><rect x="0" width="768" y="0" height="753"/></clipPath></defs><g transform="matrix(1, 0, 0, 1, 0, 15)"><g clip-path="url(#f3346a8a43)"><g clip-path="url(#a8155b5664)"><g clip-path="url(#25805a774c)"><g transform="matrix(1, 0, 0, 1, 0, 179)"><g clip-path="url(#f660f3f7d8)"><g clip-path="url(#69d8f81df8)"><g clip-path="url(#028cdb32da)"><path fill="#000000" d="M 0 0.515625 L 315.144531 0.515625 L 315.144531 315.660156 L 0 315.660156 Z M 0 0.515625 " fill-opacity="1" fill-rule="nonzero"/></g></g></g></g></g></g><g clip-path="url(#8a7c27fea1)"><g clip-path="url(#8247dc0b47)"><g transform="matrix(1, 0, 0, 1, 343, 494)"><g clip-path="url(#8010e39347)"><g clip-path="url(#510f640d84)"><g clip-path="url(#66a932eb6d)"><path fill="#000000" d="M 0.769531 0.660156 L 259.109375 0.660156 L 259.109375 259 L 0.769531 259 Z M 0.769531 0.660156 " fill-opacity="1" fill-rule="nonzero"/></g></g></g></g></g></g><g clip-path="url(#7ec58c0fd9)"><g clip-path="url(#8502f397d0)"><g transform="matrix(1, 0, 0, 1, 404, -0.000000000000056843)"><g clip-path="url(#6181b6ca38)"><g clip-path="url(#7a7437c6c6)"><g clip-path="url(#a909b6e01c)"><path fill="#000000" d="M 0.371094 0.789062 L 364 0.789062 L 364 364.417969 L 0.371094 364.417969 Z M 0.371094 0.789062 " fill-opacity="1" fill-rule="nonzero"/></g></g></g></g></g></g></g></g></svg>