<svg xmlns="http://www.w3.org/2000/svg" xmlns:xlink="http://www.w3.org/1999/xlink" width="1024" zoomAndPan="magnify" viewBox="0 0 768 767.999994" height="1024" preserveAspectRatio="xMidYMid meet" version="1.0"><defs><clipPath id="45a050ac42"><path d="M 228.734375 228.734375 L 539.265625 228.734375 L 539.265625 539.265625 L 228.734375 539.265625 Z M 228.734375 228.734375 " clip-rule="nonzero"/></clipPath><clipPath id="f76f9e19ef"><path d="M 231.734375 228.734375 L 536.265625 228.734375 C 537.0625 228.734375 537.824219 229.050781 538.386719 229.613281 C 538.949219 230.175781 539.265625 230.9375 539.265625 231.734375 L 539.265625 536.265625 C 539.265625 537.0625 538.949219 537.824219 538.386719 538.386719 C 537.824219 538.949219 537.0625 539.265625 536.265625 539.265625 L 231.734375 539.265625 C 230.9375 539.265625 230.175781 538.949219 229.613281 538.386719 C 229.050781 537.824219 228.734375 537.0625 228.734375 536.265625 L 228.734375 231.734375 C 228.734375 230.9375 229.050781 230.175781 229.613281 229.613281 C 230.175781 229.050781 230.9375 228.734375 231.734375 228.734375 Z M 231.734375 228.734375 " clip-rule="nonzero"/></clipPath><clipPath id="3be039d68c"><path d="M 0.734375 0.734375 L 311.265625 0.734375 L 311.265625 311.265625 L 0.734375 311.265625 Z M 0.734375 0.734375 " clip-rule="nonzero"/></clipPath><clipPath id="2806fbb5ff"><path d="M 3.734375 0.734375 L 308.265625 0.734375 C 309.0625 0.734375 309.824219 1.050781 310.386719 1.613281 C 310.949219 2.175781 311.265625 2.9375 311.265625 3.734375 L 311.265625 308.265625 C 311.265625 309.0625 310.949219 309.824219 310.386719 310.386719 C 309.824219 310.949219 309.0625 311.265625 308.265625 311.265625 L 3.734375 311.265625 C 2.9375 311.265625 2.175781 310.949219 1.613281 310.386719 C 1.050781 309.824219 0.734375 309.0625 0.734375 308.265625 L 0.734375 3.734375 C 0.734375 2.9375 1.050781 2.175781 1.613281 1.613281 C 2.175781 1.050781 2.9375 0.734375 3.734375 0.734375 Z M 3.734375 0.734375 " clip-rule="nonzero"/></clipPath><clipPath id="c2b9b64880"><rect x="0" width="312" y="0" height="312"/></clipPath><clipPath id="d199ecd121"><path d="M 363 0 L 405 0 L 405 219 L 363 219 Z M 363 0 " clip-rule="nonzero"/></clipPath><clipPath id="831e295f72"><path d="M 303 0 L 465 0 L 465 121 L 303 121 Z M 303 0 " clip-rule="nonzero"/></clipPath><clipPath id="ffc9ebf194"><path d="M 0 366 L 219 366 L 219 407 L 0 407 Z M 0 366 " clip-rule="nonzero"/></clipPath><clipPath id="57bc908460"><path d="M 0 305 L 121 305 L 121 467 L 0 467 Z M 0 305 " clip-rule="nonzero"/></clipPath><clipPath id="f7b9ce737d"><path d="M 363 549 L 405 549 L 405 768 L 363 768 Z M 363 549 " clip-rule="nonzero"/></clipPath><clipPath id="ad34167dde"><path d="M 303 647 L 465 647 L 465 768 L 303 768 Z M 303 647 " clip-rule="nonzero"/></clipPath><clipPath id="6cb9fe325e"><rect x="0" width="768" y="0" height="768"/></clipPath></defs><g transform="matrix(1, 0, 0, 1, 0, -0.000000000000057351)"><g clip-path="url(#6cb9fe325e)"><g clip-path="url(#45a050ac42)"><g clip-path="url(#f76f9e19ef)"><g transform="matrix(1, 0, 0, 1, 228, 228)"><g clip-path="url(#c2b9b64880)"><g clip-path="url(#3be039d68c)"><g clip-path="url(#2806fbb5ff)"><path fill="#000000" d="M 0.734375 0.734375 L 311.265625 0.734375 L 311.265625 311.265625 L 0.734375 311.265625 Z M 0.734375 0.734375 " fill-opacity="1" fill-rule="nonzero"/></g></g></g></g></g></g><g clip-path="url(#d199ecd121)"><path stroke-linecap="butt" transform="matrix(0.0000000174832, -10.017151, 10.017151, 0.0000000174832, 363.935025, 198.652028)" fill="none" stroke-linejoin="miter" d="M -0.0000315403 1.999942 L 17.834224 1.999942 " stroke="#000000" stroke-width="4" stroke-opacity="1" stroke-miterlimit="4"/></g><g clip-path="url(#831e295f72)"><path stroke-linecap="round" transform="matrix(0.0000000174832, -10.017151, 10.017151, 0.0000000174832, 363.935025, 198.652028)" fill="none" stroke-linejoin="round" d="M 9.834273 -3.999923 L 17.834224 1.999942 L 9.834273 7.999808 " stroke="#000000" stroke-width="4" stroke-opacity="1" stroke-miterlimit="4"/></g><g clip-path="url(#ffc9ebf194)"><path stroke-linecap="butt" transform="matrix(-10.017151, 0, 0, -10.017151, 198.621336, 406.131024)" fill="none" stroke-linejoin="miter" d="M 0.0000242207 1.999907 L 17.83428 1.999907 " stroke="#000000" stroke-width="4" stroke-opacity="1" stroke-miterlimit="4"/></g><g clip-path="url(#57bc908460)"><path stroke-linecap="round" transform="matrix(-10.017151, 0, 0, -10.017151, 198.621336, 406.131024)" fill="none" stroke-linejoin="round" d="M 9.834329 -3.999959 L 17.83428 1.999907 L 9.834329 8.000162 " stroke="#000000" stroke-width="4" stroke-opacity="1" stroke-miterlimit="4"/></g><g clip-path="url(#f7b9ce737d)"><path stroke-linecap="butt" transform="matrix(0, 10.017151, -10.017151, 0, 404.003623, 569.34796)" fill="none" stroke-linejoin="miter" d="M -0.0000303059 2.000057 L 17.834226 2.000057 " stroke="#000000" stroke-width="4" stroke-opacity="1" stroke-miterlimit="4"/></g><g clip-path="url(#ad34167dde)"><path stroke-linecap="round" transform="matrix(0, 10.017151, -10.017151, 0, 404.003623, 569.34796)" fill="none" stroke-linejoin="round" d="M 9.834275 -3.999809 L 17.834226 2.000057 L 9.834275 7.999923 " stroke="#000000" stroke-width="4" stroke-opacity="1" stroke-miterlimit="4"/></g><path stroke-linecap="butt" transform="matrix(10.017151, 0, 0, 10.017151, 569.317247, 366.062433)" fill="none" stroke-linejoin="miter" d="M -0.0000839141 2.000092 L 17.834172 2.000092 " stroke="#000000" stroke-width="4" stroke-opacity="1" stroke-miterlimit="4"/><path stroke-linecap="round" transform="matrix(10.017151, 0, 0, 10.017151, 569.317247, 366.062433)" fill="none" stroke-linejoin="round" d="M 9.834221 -4.000164 L 17.834172 2.000092 L 9.834221 7.999958 " stroke="#000000" stroke-width="4" stroke-opacity="1" stroke-miterlimit="4"/></g></g></svg>