<svg xmlns="http://www.w3.org/2000/svg" xmlns:xlink="http://www.w3.org/1999/xlink" width="1024" zoomAndPan="magnify" viewBox="0 0 768 767.999994" height="1024" preserveAspectRatio="xMidYMid meet" version="1.0"><defs><clipPath id="5c999e18a8"><path d="M 241.484375 10.800781 L 393.683594 10.800781 L 393.683594 163 L 241.484375 163 Z M 241.484375 10.800781 " clip-rule="nonzero"/></clipPath><clipPath id="3068c00977"><path d="M 242.984375 10.800781 L 392.183594 10.800781 C 392.582031 10.800781 392.960938 10.957031 393.242188 11.238281 C 393.523438 11.519531 393.683594 11.902344 393.683594 12.300781 L 393.683594 161.5 C 393.683594 161.894531 393.523438 162.277344 393.242188 162.558594 C 392.960938 162.839844 392.582031 163 392.183594 163 L 242.984375 163 C 242.585938 163 242.207031 162.839844 241.925781 162.558594 C 241.640625 162.277344 241.484375 161.894531 241.484375 161.5 L 241.484375 12.300781 C 241.484375 11.902344 241.640625 11.519531 241.925781 11.238281 C 242.207031 10.957031 242.585938 10.800781 242.984375 10.800781 Z M 242.984375 10.800781 " clip-rule="nonzero"/></clipPath><clipPath id="001e1d347f"><path d="M 0.484375 0.800781 L 152.683594 0.800781 L 152.683594 153 L 0.484375 153 Z M 0.484375 0.800781 " clip-rule="nonzero"/></clipPath><clipPath id="60831b81b0"><path d="M 1.984375 0.800781 L 151.183594 0.800781 C 151.582031 0.800781 151.960938 0.957031 152.242188 1.238281 C 152.523438 1.519531 152.683594 1.902344 152.683594 2.300781 L 152.683594 151.5 C 152.683594 151.894531 152.523438 152.277344 152.242188 152.558594 C 151.960938 152.839844 151.582031 153 151.183594 153 L 1.984375 153 C 1.585938 153 1.207031 152.839844 0.925781 152.558594 C 0.640625 152.277344 0.484375 151.894531 0.484375 151.5 L 0.484375 2.300781 C 0.484375 1.902344 0.640625 1.519531 0.925781 1.238281 C 1.207031 0.957031 1.585938 0.800781 1.984375 0.800781 Z M 1.984375 0.800781 " clip-rule="nonzero"/></clipPath><clipPath id="46c79cb455"><rect x="0" width="153" y="0" height="153"/></clipPath><clipPath id="5646f40cd0"><path d="M 10.382812 200.6875 L 162.582031 200.6875 L 162.582031 352.886719 L 10.382812 352.886719 Z M 10.382812 200.6875 " clip-rule="nonzero"/></clipPath><clipPath id="4d0aafcc98"><path d="M 11.882812 200.6875 L 161.082031 200.6875 C 161.480469 200.6875 161.863281 200.84375 162.144531 201.125 C 162.425781 201.40625 162.582031 201.789062 162.582031 202.1875 L 162.582031 351.386719 C 162.582031 351.785156 162.425781 352.164062 162.144531 352.445312 C 161.863281 352.726562 161.480469 352.886719 161.082031 352.886719 L 11.882812 352.886719 C 11.484375 352.886719 11.105469 352.726562 10.824219 352.445312 C 10.542969 352.164062 10.382812 351.785156 10.382812 351.386719 L 10.382812 202.1875 C 10.382812 201.789062 10.542969 201.40625 10.824219 201.125 C 11.105469 200.84375 11.484375 200.6875 11.882812 200.6875 Z M 11.882812 200.6875 " clip-rule="nonzero"/></clipPath><clipPath id="2a54edb89f"><path d="M 0.382812 0.6875 L 152.582031 0.6875 L 152.582031 152.886719 L 0.382812 152.886719 Z M 0.382812 0.6875 " clip-rule="nonzero"/></clipPath><clipPath id="4113d087ed"><path d="M 1.882812 0.6875 L 151.082031 0.6875 C 151.480469 0.6875 151.863281 0.84375 152.144531 1.125 C 152.425781 1.40625 152.582031 1.789062 152.582031 2.1875 L 152.582031 151.386719 C 152.582031 151.785156 152.425781 152.164062 152.144531 152.445312 C 151.863281 152.726562 151.480469 152.886719 151.082031 152.886719 L 1.882812 152.886719 C 1.484375 152.886719 1.105469 152.726562 0.824219 152.445312 C 0.542969 152.164062 0.382812 151.785156 0.382812 151.386719 L 0.382812 2.1875 C 0.382812 1.789062 0.542969 1.40625 0.824219 1.125 C 1.105469 0.84375 1.484375 0.6875 1.882812 0.6875 Z M 1.882812 0.6875 " clip-rule="nonzero"/></clipPath><clipPath id="8c2eda3e56"><rect x="0" width="153" y="0" height="153"/></clipPath><clipPath id="44be0d87a4"><path d="M 374.984375 473 L 527.183594 473 L 527.183594 625.199219 L 374.984375 625.199219 Z M 374.984375 473 " clip-rule="nonzero"/></clipPath><clipPath id="202c4f0f91"><path d="M 376.484375 473 L 525.683594 473 C 526.082031 473 526.464844 473.160156 526.746094 473.441406 C 527.027344 473.722656 527.183594 474.101562 527.183594 474.5 L 527.183594 623.699219 C 527.183594 624.097656 527.027344 624.480469 526.746094 624.761719 C 526.464844 625.042969 526.082031 625.199219 525.683594 625.199219 L 376.484375 625.199219 C 376.085938 625.199219 375.707031 625.042969 375.425781 624.761719 C 375.144531 624.480469 374.984375 624.097656 374.984375 623.699219 L 374.984375 474.5 C 374.984375 474.101562 375.144531 473.722656 375.425781 473.441406 C 375.707031 473.160156 376.085938 473 376.484375 473 Z M 376.484375 473 " clip-rule="nonzero"/></clipPath><clipPath id="e4f25d678a"><path d="M 0.984375 0 L 153.183594 0 L 153.183594 152.199219 L 0.984375 152.199219 Z M 0.984375 0 " clip-rule="nonzero"/></clipPath><clipPath id="cbe348e15c"><path d="M 2.484375 0 L 151.683594 0 C 152.082031 0 152.464844 0.160156 152.746094 0.441406 C 153.027344 0.722656 153.183594 1.101562 153.183594 1.5 L 153.183594 150.699219 C 153.183594 151.097656 153.027344 151.480469 152.746094 151.761719 C 152.464844 152.042969 152.082031 152.199219 151.683594 152.199219 L 2.484375 152.199219 C 2.085938 152.199219 1.707031 152.042969 1.425781 151.761719 C 1.144531 151.480469 0.984375 151.097656 0.984375 150.699219 L 0.984375 1.5 C 0.984375 1.101562 1.144531 0.722656 1.425781 0.441406 C 1.707031 0.160156 2.085938 0 2.484375 0 Z M 2.484375 0 " clip-rule="nonzero"/></clipPath><clipPath id="5cd54ead94"><rect x="0" width="154" y="0" height="153"/></clipPath><clipPath id="120218aa7b"><path d="M 89.285156 466.769531 L 241.484375 466.769531 L 241.484375 618.96875 L 89.285156 618.96875 Z M 89.285156 466.769531 " clip-rule="nonzero"/></clipPath><clipPath id="023e2a3485"><path d="M 90.785156 466.769531 L 239.984375 466.769531 C 240.382812 466.769531 240.765625 466.925781 241.046875 467.207031 C 241.328125 467.488281 241.484375 467.871094 241.484375 468.269531 L 241.484375 617.46875 C 241.484375 617.863281 241.328125 618.246094 241.046875 618.527344 C 240.765625 618.808594 240.382812 618.96875 239.984375 618.96875 L 90.785156 618.96875 C 90.386719 618.96875 90.007812 618.808594 89.726562 618.527344 C 89.445312 618.246094 89.285156 617.863281 89.285156 617.46875 L 89.285156 468.269531 C 89.285156 467.871094 89.445312 467.488281 89.726562 467.207031 C 90.007812 466.925781 90.386719 466.769531 90.785156 466.769531 Z M 90.785156 466.769531 " clip-rule="nonzero"/></clipPath><clipPath id="ef7c1cb9f5"><path d="M 0.285156 0.769531 L 152.484375 0.769531 L 152.484375 152.96875 L 0.285156 152.96875 Z M 0.285156 0.769531 " clip-rule="nonzero"/></clipPath><clipPath id="88bb2771bc"><path d="M 1.785156 0.769531 L 150.984375 0.769531 C 151.382812 0.769531 151.765625 0.925781 152.046875 1.207031 C 152.328125 1.488281 152.484375 1.871094 152.484375 2.269531 L 152.484375 151.46875 C 152.484375 151.863281 152.328125 152.246094 152.046875 152.527344 C 151.765625 152.808594 151.382812 152.96875 150.984375 152.96875 L 1.785156 152.96875 C 1.386719 152.96875 1.007812 152.808594 0.726562 152.527344 C 0.445312 152.246094 0.285156 151.863281 0.285156 151.46875 L 0.285156 2.269531 C 0.285156 1.871094 0.445312 1.488281 0.726562 1.207031 C 1.007812 0.925781 1.386719 0.769531 1.785156 0.769531 Z M 1.785156 0.769531 " clip-rule="nonzero"/></clipPath><clipPath id="f549b8a692"><rect x="0" width="153" y="0" height="153"/></clipPath><clipPath id="3a07ad9580"><path d="M 472.585938 200.6875 L 624.785156 200.6875 L 624.785156 352.886719 L 472.585938 352.886719 Z M 472.585938 200.6875 " clip-rule="nonzero"/></clipPath><clipPath id="2d6b8dfc27"><path d="M 474.085938 200.6875 L 623.285156 200.6875 C 623.683594 200.6875 624.0625 200.84375 624.34375 201.125 C 624.625 201.40625 624.785156 201.789062 624.785156 202.1875 L 624.785156 351.386719 C 624.785156 351.785156 624.625 352.164062 624.34375 352.445312 C 624.0625 352.726562 623.683594 352.886719 623.285156 352.886719 L 474.085938 352.886719 C 473.6875 352.886719 473.304688 352.726562 473.023438 352.445312 C 472.742188 352.164062 472.585938 351.785156 472.585938 351.386719 L 472.585938 202.1875 C 472.585938 201.789062 472.742188 201.40625 473.023438 201.125 C 473.304688 200.84375 473.6875 200.6875 474.085938 200.6875 Z M 474.085938 200.6875 " clip-rule="nonzero"/></clipPath><clipPath id="8268eddb76"><path d="M 0.585938 0.6875 L 152.785156 0.6875 L 152.785156 152.886719 L 0.585938 152.886719 Z M 0.585938 0.6875 " clip-rule="nonzero"/></clipPath><clipPath id="90564aeff5"><path d="M 2.085938 0.6875 L 151.285156 0.6875 C 151.683594 0.6875 152.0625 0.84375 152.34375 1.125 C 152.625 1.40625 152.785156 1.789062 152.785156 2.1875 L 152.785156 151.386719 C 152.785156 151.785156 152.625 152.164062 152.34375 152.445312 C 152.0625 152.726562 151.683594 152.886719 151.285156 152.886719 L 2.085938 152.886719 C 1.6875 152.886719 1.304688 152.726562 1.023438 152.445312 C 0.742188 152.164062 0.585938 151.785156 0.585938 151.386719 L 0.585938 2.1875 C 0.585938 1.789062 0.742188 1.40625 1.023438 1.125 C 1.304688 0.84375 1.6875 0.6875 2.085938 0.6875 Z M 2.085938 0.6875 " clip-rule="nonzero"/></clipPath><clipPath id="e311c0e3ea"><rect x="0" width="153" y="0" height="153"/></clipPath><clipPath id="1888120845"><path d="M 50.621094 51.035156 L 584.484375 51.035156 L 584.484375 584.902344 L 50.621094 584.902344 Z M 50.621094 51.035156 " clip-rule="nonzero"/></clipPath><clipPath id="0644c9fe67"><path d="M 317.554688 51.035156 C 170.128906 51.035156 50.621094 170.546875 50.621094 317.96875 C 50.621094 465.390625 170.128906 584.902344 317.554688 584.902344 C 464.976562 584.902344 584.484375 465.390625 584.484375 317.96875 C 584.484375 170.546875 464.976562 51.035156 317.554688 51.035156 Z M 317.554688 51.035156 " clip-rule="nonzero"/></clipPath><clipPath id="c165a523eb"><rect x="0" width="635" y="0" height="636"/></clipPath></defs><g transform="matrix(1, 0, 0, 1, 54, 66)"><g clip-path="url(#c165a523eb)"><g clip-path="url(#5c999e18a8)"><g clip-path="url(#3068c00977)"><g transform="matrix(1, 0, 0, 1, 241, 10)"><g clip-path="url(#46c79cb455)"><g clip-path="url(#001e1d347f)"><g clip-path="url(#60831b81b0)"><path fill="#000000" d="M 0.484375 0.800781 L 152.683594 0.800781 L 152.683594 153 L 0.484375 153 Z M 0.484375 0.800781 " fill-opacity="1" fill-rule="nonzero"/></g></g></g></g></g></g><g clip-path="url(#5646f40cd0)"><g clip-path="url(#4d0aafcc98)"><g transform="matrix(1, 0, 0, 1, 10, 200)"><g clip-path="url(#8c2eda3e56)"><g clip-path="url(#2a54edb89f)"><g clip-path="url(#4113d087ed)"><path fill="#000000" d="M 0.382812 0.6875 L 152.582031 0.6875 L 152.582031 152.886719 L 0.382812 152.886719 Z M 0.382812 0.6875 " fill-opacity="1" fill-rule="nonzero"/></g></g></g></g></g></g><g clip-path="url(#44be0d87a4)"><g clip-path="url(#202c4f0f91)"><g transform="matrix(1, 0, 0, 1, 374, 473)"><g clip-path="url(#5cd54ead94)"><g clip-path="url(#e4f25d678a)"><g clip-path="url(#cbe348e15c)"><path fill="#000000" d="M 0.984375 0 L 153.183594 0 L 153.183594 152.199219 L 0.984375 152.199219 Z M 0.984375 0 " fill-opacity="1" fill-rule="nonzero"/></g></g></g></g></g></g><g clip-path="url(#120218aa7b)"><g clip-path="url(#023e2a3485)"><g transform="matrix(1, 0, 0, 1, 89, 466)"><g clip-path="url(#f549b8a692)"><g clip-path="url(#ef7c1cb9f5)"><g clip-path="url(#88bb2771bc)"><path fill="#000000" d="M 0.285156 0.769531 L 152.484375 0.769531 L 152.484375 152.96875 L 0.285156 152.96875 Z M 0.285156 0.769531 " fill-opacity="1" fill-rule="nonzero"/></g></g></g></g></g></g><g clip-path="url(#3a07ad9580)"><g clip-path="url(#2d6b8dfc27)"><g transform="matrix(1, 0, 0, 1, 472, 200)"><g clip-path="url(#e311c0e3ea)"><g clip-path="url(#8268eddb76)"><g clip-path="url(#90564aeff5)"><path fill="#000000" d="M 0.585938 0.6875 L 152.785156 0.6875 L 152.785156 152.886719 L 0.585938 152.886719 Z M 0.585938 0.6875 " fill-opacity="1" fill-rule="nonzero"/></g></g></g></g></g></g><g clip-path="url(#1888120845)"><g clip-path="url(#0644c9fe67)"><path fill="#000000" d="M 295.734375 63.203125 C 292.148438 63.507812 288.578125 63.882812 285.015625 64.335938 L 282.179688 42.015625 C 286.054688 41.523438 289.941406 41.113281 293.839844 40.78125 Z M 274.433594 65.90625 C 270.921875 66.5 267.421875 67.171875 263.941406 67.914062 L 259.246094 45.910156 C 263.035156 45.101562 266.84375 44.371094 270.667969 43.722656 Z M 253.351562 70.410156 C 249.859375 71.3125 246.386719 72.289062 242.9375 73.339844 L 236.382812 51.816406 C 240.136719 50.675781 243.917969 49.609375 247.71875 48.628906 Z M 232.710938 76.695312 C 229.339844 77.882812 225.996094 79.136719 222.675781 80.464844 L 214.320312 59.574219 C 217.933594 58.128906 221.578125 56.761719 225.246094 55.46875 Z M 212.757812 84.675781 C 209.46875 86.15625 206.210938 87.707031 202.984375 89.324219 L 192.890625 69.21875 C 196.398438 67.457031 199.945312 65.769531 203.527344 64.15625 Z M 193.445312 94.371094 C 190.308594 96.117188 187.207031 97.929688 184.144531 99.804688 L 172.386719 80.621094 C 175.71875 78.578125 179.09375 76.609375 182.503906 74.710938 Z M 175.101562 105.613281 C 172.109375 107.621094 169.164062 109.695312 166.261719 111.828125 L 152.933594 93.703125 C 156.089844 91.378906 159.296875 89.125 162.546875 86.941406 Z M 157.699219 118.40625 C 154.890625 120.65625 152.132812 122.964844 149.425781 125.332031 L 134.621094 108.386719 C 137.570312 105.8125 140.566406 103.304688 143.621094 100.855469 Z M 141.453125 132.597656 C 138.847656 135.074219 136.292969 137.601562 133.792969 140.1875 L 117.625 124.539062 C 120.34375 121.730469 123.121094 118.980469 125.953125 116.285156 Z M 126.460938 148.089844 C 124.070312 150.777344 121.734375 153.515625 119.460938 156.300781 L 102.035156 142.0625 C 104.511719 139.035156 107.046875 136.058594 109.648438 133.136719 Z M 112.804688 164.800781 C 110.644531 167.6875 108.542969 170.613281 106.507812 173.585938 L 87.949219 160.863281 C 90.164062 157.632812 92.449219 154.445312 94.800781 151.308594 Z M 100.613281 182.585938 C 98.710938 185.628906 96.871094 188.710938 95.097656 191.828125 L 75.535156 180.710938 C 77.464844 177.316406 79.464844 173.964844 81.535156 170.652344 Z M 89.96875 201.320312 C 88.320312 204.527344 86.742188 207.769531 85.230469 211.042969 L 64.796875 201.621094 C 66.441406 198.058594 68.160156 194.53125 69.953125 191.039062 Z M 80.917969 220.949219 C 79.558594 224.253906 78.273438 227.582031 77.058594 230.941406 L 55.902344 223.28125 C 57.226562 219.628906 58.625 216.003906 60.101562 212.40625 Z M 73.613281 241.128906 C 72.535156 244.5625 71.527344 248.023438 70.59375 251.5 L 48.859375 245.667969 C 49.878906 241.878906 50.976562 238.113281 52.152344 234.375 Z M 68 262.054688 C 67.222656 265.546875 66.515625 269.054688 65.882812 272.582031 L 43.738281 268.617188 C 44.425781 264.777344 45.191406 260.957031 46.039062 257.15625 Z M 64.222656 283.132812 C 63.738281 286.683594 63.328125 290.246094 62.996094 293.820312 L 40.59375 291.722656 C 40.957031 287.835938 41.402344 283.960938 41.929688 280.097656 Z M 62.210938 304.644531 C 62.023438 308.285156 61.914062 311.933594 61.882812 315.585938 L 39.382812 315.382812 C 39.417969 311.410156 39.539062 307.445312 39.742188 303.488281 Z M 62.011719 326.578125 C 62.132812 330.210938 62.328125 333.835938 62.601562 337.453125 L 40.164062 339.144531 C 39.867188 335.210938 39.65625 331.269531 39.523438 327.320312 Z M 63.636719 348.203125 C 64.054688 351.75 64.546875 355.289062 65.113281 358.8125 L 42.898438 362.378906 C 42.28125 358.542969 41.746094 354.695312 41.292969 350.832031 Z M 67.015625 369.277344 C 67.742188 372.835938 68.542969 376.375 69.417969 379.894531 L 47.582031 385.328125 C 46.628906 381.492188 45.757812 377.640625 44.96875 373.769531 Z M 72.253906 390.347656 C 73.269531 393.792969 74.359375 397.21875 75.519531 400.617188 L 54.226562 407.886719 C 52.960938 404.183594 51.777344 400.457031 50.671875 396.707031 Z M 79.199219 410.695312 C 80.5 414.03125 81.867188 417.339844 83.308594 420.621094 L 62.703125 429.664062 C 61.136719 426.09375 59.648438 422.488281 58.230469 418.855469 Z M 87.871094 430.445312 C 89.457031 433.675781 91.109375 436.875 92.832031 440.035156 L 73.070312 450.792969 C 71.195312 447.351562 69.398438 443.871094 67.671875 440.355469 Z M 98.183594 449.386719 C 100.027344 452.460938 101.9375 455.492188 103.910156 458.488281 L 85.125 470.871094 C 82.976562 467.613281 80.898438 464.3125 78.890625 460.96875 Z M 110.039062 467.371094 C 112.144531 470.292969 114.3125 473.167969 116.539062 475.996094 L 98.859375 489.917969 C 96.4375 486.839844 94.082031 483.710938 91.789062 480.535156 Z M 123.390625 484.335938 C 125.730469 487.0625 128.128906 489.742188 130.582031 492.371094 L 114.132812 507.722656 C 111.464844 504.863281 108.859375 501.949219 106.3125 498.984375 Z M 138.101562 500.097656 C 140.664062 502.621094 143.277344 505.089844 145.941406 507.503906 L 130.832031 524.179688 C 127.9375 521.554688 125.09375 518.871094 122.308594 516.125 Z M 154.085938 514.578125 C 156.851562 516.882812 159.664062 519.125 162.523438 521.308594 L 148.867188 539.191406 C 145.757812 536.816406 142.699219 534.375 139.691406 531.871094 Z M 171.246094 527.683594 C 174.191406 529.742188 177.175781 531.738281 180.203125 533.667969 L 168.097656 552.636719 C 164.808594 550.535156 161.558594 548.363281 158.355469 546.125 Z M 189.394531 539.265625 C 192.503906 541.070312 195.648438 542.808594 198.832031 544.480469 L 188.367188 564.398438 C 184.90625 562.578125 181.480469 560.6875 178.097656 558.722656 Z M 208.503906 549.300781 C 211.773438 550.84375 215.070312 552.316406 218.398438 553.71875 L 209.667969 574.457031 C 206.042969 572.929688 202.453125 571.328125 198.898438 569.648438 Z M 228.347656 557.664062 C 231.703125 558.914062 235.085938 560.089844 238.492188 561.199219 L 231.542969 582.597656 C 227.832031 581.394531 224.152344 580.109375 220.496094 578.75 Z M 248.828125 564.3125 C 252.3125 565.28125 255.816406 566.179688 259.339844 567 L 254.238281 588.914062 C 250.402344 588.019531 246.585938 587.046875 242.792969 585.988281 Z M 269.90625 569.222656 C 273.398438 569.878906 276.902344 570.464844 280.421875 570.976562 L 277.1875 593.242188 C 273.355469 592.6875 269.539062 592.050781 265.738281 591.332031 Z M 291.082031 572.300781 C 294.671875 572.667969 298.269531 572.960938 301.878906 573.179688 L 300.519531 595.640625 C 296.597656 595.402344 292.683594 595.082031 288.78125 594.683594 Z M 312.691406 573.609375 L 317.65625 573.652344 C 319.671875 573.652344 321.714844 573.628906 323.796875 573.578125 L 324.332031 596.070312 C 322.074219 596.125 319.78125 596.152344 317.449219 596.152344 L 312.488281 596.105469 Z M 334.699219 573.085938 C 338.300781 572.847656 341.890625 572.535156 345.472656 572.144531 L 347.902344 594.515625 C 344.007812 594.9375 340.101562 595.277344 336.183594 595.539062 Z M 356.113281 570.765625 C 359.628906 570.234375 363.128906 569.628906 366.613281 568.953125 L 370.902344 591.039062 C 367.109375 591.777344 363.304688 592.433594 359.480469 593.011719 Z M 377.199219 566.660156 C 380.714844 565.820312 384.210938 564.90625 387.6875 563.917969 L 393.847656 585.558594 C 390.0625 586.632812 386.253906 587.628906 382.425781 588.546875 Z M 397.996094 560.742188 C 401.394531 559.617188 404.769531 558.421875 408.117188 557.152344 L 416.089844 578.195312 C 412.445312 579.574219 408.769531 580.878906 405.070312 582.101562 Z M 418.050781 553.148438 C 421.375 551.726562 424.664062 550.234375 427.921875 548.671875 L 437.648438 568.960938 C 434.101562 570.664062 430.519531 572.285156 426.902344 573.832031 Z M 437.566406 543.796875 C 440.738281 542.105469 443.875 540.351562 446.972656 538.527344 L 458.378906 557.921875 C 455.003906 559.90625 451.59375 561.816406 448.144531 563.65625 Z M 456.128906 532.882812 C 459.144531 530.933594 462.121094 528.917969 465.054688 526.84375 L 478.050781 545.210938 C 474.859375 547.46875 471.621094 549.660156 468.339844 551.78125 Z M 473.742188 520.417969 C 476.589844 518.21875 479.386719 515.960938 482.140625 513.640625 L 496.632812 530.851562 C 493.640625 533.375 490.59375 535.832031 487.5 538.222656 Z M 490.246094 506.523438 C 492.894531 504.09375 495.492188 501.609375 498.039062 499.074219 L 513.921875 515.007812 C 511.152344 517.769531 508.328125 520.46875 505.445312 523.109375 Z M 505.515625 491.300781 C 507.957031 488.660156 510.335938 485.964844 512.664062 483.222656 L 529.824219 497.773438 C 527.296875 500.757812 524.707031 503.683594 522.054688 506.558594 Z M 519.46875 474.847656 C 521.679688 472.003906 523.832031 469.117188 525.921875 466.183594 L 544.242188 479.242188 C 541.972656 482.429688 539.632812 485.574219 537.226562 488.664062 Z M 531.992188 457.273438 C 533.949219 454.265625 535.84375 451.21875 537.671875 448.136719 L 557.027344 459.609375 C 555.039062 462.964844 552.980469 466.277344 550.847656 469.546875 Z M 542.96875 438.753906 C 544.671875 435.578125 546.308594 432.371094 547.875 429.128906 L 568.132812 438.921875 C 566.425781 442.449219 564.644531 445.941406 562.789062 449.398438 Z M 552.382812 419.273438 C 553.804688 415.992188 555.152344 412.679688 556.429688 409.34375 L 577.441406 417.386719 C 576.050781 421.019531 574.582031 424.625 573.039062 428.199219 Z M 560.054688 399.238281 C 561.195312 395.828125 562.265625 392.398438 563.257812 388.945312 L 584.878906 395.175781 C 583.792969 398.9375 582.632812 402.675781 581.386719 406.386719 Z M 566.039062 378.46875 C 566.890625 374.953125 567.667969 371.421875 568.371094 367.871094 L 590.445312 372.238281 C 589.679688 376.101562 588.832031 379.945312 587.90625 383.773438 Z M 570.21875 357.386719 C 570.765625 353.855469 571.238281 350.308594 571.636719 346.753906 L 593.996094 349.257812 C 593.5625 353.128906 593.046875 356.984375 592.453125 360.824219 Z M 572.613281 335.988281 C 572.863281 332.367188 573.039062 328.738281 573.140625 325.097656 L 595.628906 325.710938 C 595.523438 329.667969 595.332031 333.613281 595.058594 337.550781 Z M 573.207031 314.101562 C 573.152344 310.449219 573.023438 306.804688 572.816406 303.171875 L 595.277344 301.890625 C 595.503906 305.839844 595.644531 309.800781 595.707031 313.765625 Z M 571.972656 292.367188 C 571.617188 288.796875 571.1875 285.238281 570.683594 281.695312 L 592.960938 278.535156 C 593.507812 282.390625 593.976562 286.257812 594.359375 290.140625 Z M 568.964844 271.167969 C 568.3125 267.632812 567.582031 264.113281 566.78125 260.613281 L 588.710938 255.589844 C 589.585938 259.398438 590.378906 263.226562 591.089844 267.074219 Z M 564.128906 250.085938 C 563.175781 246.613281 562.148438 243.164062 561.050781 239.738281 L 582.472656 232.859375 C 583.671875 236.59375 584.789062 240.347656 585.828125 244.128906 Z M 557.546875 229.574219 C 556.316406 226.226562 555.011719 222.90625 553.636719 219.613281 L 574.402344 210.949219 C 575.898438 214.539062 577.316406 218.152344 578.660156 221.796875 Z M 549.257812 209.714844 C 547.730469 206.449219 546.132812 203.21875 544.46875 200.019531 L 564.421875 189.625 C 566.234375 193.105469 567.972656 196.625 569.636719 200.175781 Z M 539.285156 190.5625 C 537.492188 187.453125 535.640625 184.382812 533.71875 181.351562 L 552.726562 169.3125 C 554.816406 172.613281 556.835938 175.953125 558.78125 179.335938 Z M 527.769531 172.382812 C 525.714844 169.421875 523.597656 166.507812 521.421875 163.632812 L 539.351562 150.039062 C 541.71875 153.164062 544.019531 156.335938 546.253906 159.554688 Z M 514.71875 155.171875 C 512.429688 152.398438 510.078125 149.675781 507.671875 147.003906 L 524.398438 131.953125 C 527.015625 134.859375 529.570312 137.820312 532.0625 140.835938 Z M 500.292969 139.140625 C 497.78125 136.570312 495.210938 134.054688 492.59375 131.59375 L 508 115.195312 C 510.847656 117.875 513.640625 120.609375 516.375 123.402344 Z M 484.578125 124.375 C 481.855469 122.023438 479.085938 119.730469 476.265625 117.496094 L 490.246094 99.867188 C 493.308594 102.296875 496.324219 104.789062 499.285156 107.347656 Z M 467.664062 110.964844 C 464.75 108.851562 461.796875 106.796875 458.796875 104.804688 L 471.242188 86.0625 C 474.503906 88.226562 477.71875 90.460938 480.890625 92.761719 Z M 449.71875 99.046875 C 446.644531 97.1875 443.53125 95.394531 440.386719 93.667969 L 451.210938 73.941406 C 454.636719 75.820312 458.019531 77.773438 461.363281 79.796875 Z M 430.8125 88.671875 C 427.574219 87.070312 424.308594 85.539062 421.007812 84.078125 L 430.121094 63.503906 C 433.710938 65.097656 437.269531 66.765625 440.792969 68.507812 Z M 411.085938 79.929688 C 407.757812 78.621094 404.402344 77.382812 401.023438 76.21875 L 408.367188 54.949219 C 412.042969 56.21875 415.695312 57.566406 419.320312 58.992188 Z M 390.769531 72.921875 C 387.3125 71.886719 383.832031 70.929688 380.332031 70.046875 L 385.839844 48.230469 C 389.648438 49.191406 393.4375 50.234375 397.203125 51.359375 Z M 369.71875 67.609375 C 366.246094 66.890625 362.753906 66.242188 359.25 65.667969 L 362.886719 43.464844 C 366.703125 44.089844 370.503906 44.792969 374.285156 45.578125 Z M 348.648438 64.15625 C 345.082031 63.722656 341.5 63.367188 337.910156 63.085938 L 339.675781 40.652344 C 343.582031 40.960938 347.472656 41.351562 351.355469 41.820312 Z M 327.046875 62.457031 C 323.886719 62.34375 320.722656 62.285156 317.554688 62.285156 C 313.890625 62.285156 310.234375 62.363281 306.582031 62.515625 L 305.632812 40.035156 C 309.601562 39.871094 313.574219 39.785156 317.554688 39.785156 C 320.996094 39.785156 324.433594 39.847656 327.867188 39.972656 Z M 327.046875 62.457031 " fill-opacity="1" fill-rule="nonzero"/></g></g></g></g></svg>